# xmcd
#
# Track frame offsets:
#	150
#	13431
#	27388
#	40495
#	70276
#
# Disc length: 1100 seconds
#
# Revision: 1
# Processed by: cddbd v1.5.2PL0 Copyright (c) Steve Scherf et al.
# Submitted via: audiograbber 1.83.01
#
DISCID=45044a05
DTITLE=Hightown Crows - Clawhammer
DYEAR=2007
DGENRE=Country
TTITLE0=Slowdriver
TTITLE1=Diddley squat
TTITLE2=Wailing souls
TTITLE3=Clawhammer
TTITLE4=Lazyeye
EXTD=
EXTT0=
EXTT1=
EXTT2=
EXTT3=
EXTT4=
PLAYORDER=
